<svg width="53" height="52" viewBox="0 0 53 52" fill="none" xmlns="http://www.w3.org/2000/svg">
<path d="M27.0002 1.99987C40.2547 1.99987 51.0001 12.745 51.0001 25.9995C51.0001 39.2545 40.2547 50.0001 27.0002 50.0001C13.745 50.0001 2.99985 39.2545 2.99985 25.9995C2.99985 12.745 13.745 1.99987 27.0002 1.99987Z" fill="black" fill-opacity="0.01" stroke="white" stroke-width="2"/>
<g clip-path="url(#clip0)">
<path d="M27.326 13.9998C20.747 14.0008 17.25 18.2158 17.25 22.8118C17.25 24.9428 18.441 27.6018 20.348 28.4448C20.892 28.6898 20.82 28.3908 21.288 26.6008C21.325 26.4518 21.306 26.3228 21.186 26.1838C18.46 23.0308 20.654 16.5488 26.937 16.5488C36.03 16.5488 34.331 29.1308 28.519 29.1308C27.021 29.1308 25.905 27.9548 26.258 26.4998C26.686 24.7668 27.524 22.9038 27.524 21.6548C27.524 18.5068 22.834 18.9738 22.834 23.1448C22.834 24.4338 23.29 25.3038 23.29 25.3038C23.29 25.3038 21.781 31.3998 21.501 32.5388C21.027 34.4668 21.565 37.5878 21.612 37.8568C21.641 38.0048 21.807 38.0518 21.9 37.9298C22.049 37.7348 23.873 35.1328 24.384 33.2518C24.57 32.5668 25.333 29.7868 25.333 29.7868C25.836 30.6948 27.286 31.4548 28.831 31.4548C33.427 31.4548 36.749 27.4148 36.749 22.4018C36.733 17.5958 32.62 13.9998 27.326 13.9998V13.9998Z" fill="white"/>
</g>
<defs>
<clipPath id="clip0">
<rect width="24" height="24" fill="white" transform="translate(15 13.9998)"/>
</clipPath>
</defs>
</svg>
