<svg width="53" height="52" viewBox="0 0 53 52" fill="none" xmlns="http://www.w3.org/2000/svg">
<path d="M25.9998 1.99987C39.255 1.99987 50.0001 12.745 50.0001 25.9995C50.0001 39.2545 39.2549 50.0001 25.9998 50.0001C12.7453 50.0001 2.00011 39.2545 2.00011 25.9995C2.00011 12.745 12.7453 1.99987 25.9998 1.99987Z" fill="black" fill-opacity="0.01" stroke="white" stroke-width="2"/>
<g clip-path="url(#clip0)">
<path d="M30.6636 17.1508H32.9458V13.1758C32.5521 13.1216 31.1979 12.9998 29.6208 12.9998C26.3302 12.9998 24.0761 15.0695 24.0761 18.8737V22.3748H20.4448V26.8185H24.0761V37.9998H28.5281V26.8195H32.0125L32.5656 22.3758H28.5271V19.3143C28.5281 18.03 28.874 17.1508 30.6636 17.1508Z" fill="white"/>
</g>
<defs>
<clipPath id="clip0">
<rect width="25" height="25" fill="white" transform="translate(14 12.9998)"/>
</clipPath>
</defs>
</svg>
