<svg width="52" height="52" viewBox="0 0 52 52" fill="none" xmlns="http://www.w3.org/2000/svg">
<path d="M26 1.99987C39.2548 1.99987 49.9999 12.745 49.9999 25.9995C49.9999 39.2545 39.2548 50.0001 26 50.0001C12.7452 50.0001 2.00001 39.2545 2.00001 25.9995C2.00001 12.745 12.7451 1.99987 26 1.99987Z" fill="black" fill-opacity="0.01" stroke="white" stroke-width="2"/>
<g clip-path="url(#clip0)">
<path d="M37.9765 21.0558C37.9203 19.7806 37.7141 18.9039 37.4187 18.1442C37.1139 17.3379 36.6451 16.6159 36.0308 16.0158C35.4307 15.4063 34.704 14.9327 33.9069 14.6327C33.1429 14.3373 32.2707 14.1311 30.9955 14.0748C29.7108 14.0139 29.3029 13.9998 26.0445 13.9998C22.786 13.9998 22.3782 14.0139 21.0982 14.0701C19.823 14.1263 18.9463 14.3327 18.1868 14.6279C17.3803 14.9327 16.6583 15.4015 16.0582 16.0158C15.4487 16.6159 14.9753 17.3426 14.6751 18.1397C14.3797 18.9039 14.1735 19.7758 14.1172 21.0511C14.0563 22.3358 14.0421 22.7437 14.0421 26.0021C14.0421 29.2605 14.0563 29.6684 14.1125 30.9484C14.1687 32.2236 14.3751 33.1003 14.6705 33.86C14.9753 34.6663 15.4487 35.3883 16.0582 35.9884C16.6583 36.5979 17.385 37.0715 18.1821 37.3715C18.9463 37.6669 19.8182 37.8731 21.0936 37.9294C22.3734 37.9858 22.7815 37.9997 26.0399 37.9997C29.2984 37.9997 29.7062 37.9858 30.9862 37.9294C32.2614 37.8731 33.1381 37.6669 33.8976 37.3715C35.5105 36.7479 36.7857 35.4727 37.4093 33.86C37.7045 33.0957 37.9109 32.2236 37.9672 30.9484C38.0234 29.6684 38.0375 29.2605 38.0375 26.0021C38.0375 22.7437 38.0327 22.3358 37.9765 21.0558ZM35.8153 30.8546C35.7636 32.0267 35.5667 32.6597 35.4026 33.0816C34.9994 34.1272 34.1695 34.957 33.124 35.3603C32.702 35.5243 32.0645 35.7212 30.897 35.7727C29.6311 35.8291 29.2515 35.843 26.0493 35.843C22.847 35.843 22.4626 35.8291 21.2013 35.7727C20.0292 35.7212 19.3963 35.5243 18.9743 35.3603C18.454 35.168 17.9804 34.8632 17.596 34.4647C17.1975 34.0755 16.8927 33.6067 16.7004 33.0864C16.5363 32.6644 16.3395 32.0267 16.288 30.8594C16.2316 29.5935 16.2177 29.2137 16.2177 26.0114C16.2177 22.8092 16.2316 22.4248 16.288 21.1637C16.3395 19.9916 16.5363 19.3587 16.7004 18.9367C16.8927 18.4162 17.1975 17.9428 17.6008 17.5582C17.9898 17.1597 18.4586 16.8549 18.9791 16.6628C19.401 16.4987 20.0387 16.3018 21.2061 16.2502C22.472 16.194 22.8518 16.1799 26.0538 16.1799C29.2608 16.1799 29.6405 16.194 30.9018 16.2502C32.0739 16.3018 32.7068 16.4987 33.1288 16.6628C33.6491 16.8549 34.1227 17.1597 34.5071 17.5582C34.9056 17.9474 35.2103 18.4162 35.4026 18.9367C35.5667 19.3587 35.7636 19.9962 35.8153 21.1637C35.8715 22.4296 35.8856 22.8092 35.8856 26.0114C35.8856 29.2137 35.8715 29.5887 35.8153 30.8546Z" fill="white"/>
<path d="M26.0445 19.8369C22.6408 19.8369 19.8792 22.5983 19.8792 26.0022C19.8792 29.406 22.6408 32.1674 26.0445 32.1674C29.4483 32.1674 32.2097 29.406 32.2097 26.0022C32.2097 22.5983 29.4483 19.8369 26.0445 19.8369ZM26.0445 30.0014C23.8363 30.0014 22.0452 28.2105 22.0452 26.0022C22.0452 23.7939 23.8363 22.0029 26.0445 22.0029C28.2528 22.0029 30.0437 23.7939 30.0437 26.0022C30.0437 28.2105 28.2528 30.0014 26.0445 30.0014Z" fill="white"/>
<path d="M33.893 19.5929C33.893 20.3877 33.2485 21.0322 32.4535 21.0322C31.6587 21.0322 31.0142 20.3877 31.0142 19.5929C31.0142 18.7979 31.6587 18.1536 32.4535 18.1536C33.2485 18.1536 33.893 18.7979 33.893 19.5929Z" fill="white"/>
</g>
<defs>
<clipPath id="clip0">
<rect width="24" height="24" fill="white" transform="translate(14 13.9998)"/>
</clipPath>
</defs>
</svg>
